<?xml version="1.0" encoding="UTF-8" standalone="no"?>
<!-- Created with Inkscape (http://www.inkscape.org/) -->

<svg
   width="128"
   height="128"
   viewBox="0 0 33.866667 33.866666"
   version="1.1"
   id="svg1"
   inkscape:version="1.3.2 (091e20e, 2023-11-25, custom)"
   sodipodi:docname="browser-scaled.svg"
   inkscape:export-filename="browser-scaled.png"
   inkscape:export-xdpi="96"
   inkscape:export-ydpi="96"
   xmlns:inkscape="http://www.inkscape.org/namespaces/inkscape"
   xmlns:sodipodi="http://sodipodi.sourceforge.net/DTD/sodipodi-0.dtd"
   xmlns="http://www.w3.org/2000/svg"
   xmlns:svg="http://www.w3.org/2000/svg">
  <sodipodi:namedview
     id="namedview1"
     pagecolor="#ffffff"
     bordercolor="#111111"
     borderopacity="1"
     inkscape:showpageshadow="0"
     inkscape:pageopacity="0"
     inkscape:pagecheckerboard="1"
     inkscape:deskcolor="#d1d1d1"
     inkscape:document-units="px"
     inkscape:zoom="8.1744669"
     inkscape:cx="61.410733"
     inkscape:cy="65.998188"
     inkscape:window-width="2560"
     inkscape:window-height="1361"
     inkscape:window-x="-9"
     inkscape:window-y="-9"
     inkscape:window-maximized="1"
     inkscape:current-layer="layer1" />
  <defs
     id="defs1" />
  <g
     inkscape:label="Layer 1"
     inkscape:groupmode="layer"
     id="layer1">
    <g
       id="g2"
       transform="matrix(1.27,0,0,1.27,4.2333333,4.1804166)">
      <path
         d="M 18,2 H 2 C 0.9,2 0,2.9 0,4 v 12 c 0,1.1 0.9,2 2,2 h 16 c 1.1,0 2,-0.9 2,-2 V 4 C 20,2.9 19.1,2 18,2 Z M 4.5,3.75 a 0.75,0.75 0 1 1 0,1.5 0.75,0.75 0 0 1 0,-1.5 z M 1.75,4.5 a 0.75,0.75 0 1 1 1.5,0 0.75,0.75 0 0 1 -1.5,0 z M 18,16 H 2 V 7 H 18 Z M 18,5 H 6 V 4 h 12.019 z"
         id="path1" />
    </g>
  </g>
</svg>
